<svg width="1100" height="860" viewBox="0 0 1100 860" xmlns="http://www.w3.org/2000/svg">
  <defs>
    <pattern id="rugPattern" patternUnits="userSpaceOnUse" width="12" height="12" patternTransform="rotate(45)">
      <line x1="0" y1="0" x2="0" y2="12" stroke="#94a3b8" stroke-width="2" opacity="0.55"/>
    </pattern>
    <pattern id="rugDots" patternUnits="userSpaceOnUse" width="10" height="10">
      <circle cx="3" cy="3" r="1.2" fill="#94a3b8" opacity="0.35"/>
    </pattern>
  </defs>

  <rect width="1100" height="860" fill="#f8fafc"/>
  <rect x="24" y="20" width="1052" height="820" rx="28" fill="#ffffff" stroke="#e2e8f0" stroke-width="2"/>

  <text x="60" y="60" font-family="Arial, sans-serif" font-size="16" font-weight="700" fill="#059669">
    ПЛАН РАССТАНОВКИ
  </text>

  <text x="60" y="96" font-family="Arial, sans-serif" font-size="30" font-weight="700" fill="#0f172a">
    Кровать у левой стены, свободный центр
  </text>

  <text x="1040" y="60" text-anchor="end" font-family="Arial, sans-serif" font-size="15" fill="#475569">
    Спальня
  </text>

  <text x="1040" y="84" text-anchor="end" font-family="Arial, sans-serif" font-size="15" fill="#475569">
    Размер: 4 × 5 м
  </text>

  <text x="1040" y="108" text-anchor="end" font-family="Arial, sans-serif" font-size="13" fill="#64748b">
    Точность: low
  </text>

  
      <line x1="422" y1="130" x2="422" y2="770" stroke="#e2e8f0" stroke-width="1" stroke-dasharray="5 7"/>
    
      <line x1="550" y1="130" x2="550" y2="770" stroke="#e2e8f0" stroke-width="1" stroke-dasharray="5 7"/>
    
      <line x1="678" y1="130" x2="678" y2="770" stroke="#e2e8f0" stroke-width="1" stroke-dasharray="5 7"/>
    
      <line x1="294" y1="258" x2="806" y2="258" stroke="#e2e8f0" stroke-width="1" stroke-dasharray="5 7"/>
    
      <line x1="294" y1="386" x2="806" y2="386" stroke="#e2e8f0" stroke-width="1" stroke-dasharray="5 7"/>
    
      <line x1="294" y1="514" x2="806" y2="514" stroke="#e2e8f0" stroke-width="1" stroke-dasharray="5 7"/>
    
      <line x1="294" y1="642" x2="806" y2="642" stroke="#e2e8f0" stroke-width="1" stroke-dasharray="5 7"/>
    

  <rect
    x="294"
    y="130"
    width="512"
    height="640"
    rx="8"
    fill="#fffefc"
    stroke="#1e293b"
    stroke-width="4"
  />

  
      <g>
        <line x1="294" y1="155.6" x2="396.4" y2="258" stroke="#475569" stroke-width="2"/>
        <path d="M 294 155.6 A 102.4 102.4 0 0 1 396.4 258" fill="none" stroke="#94a3b8" stroke-width="1.8" stroke-dasharray="5 5"/>
        <text x="308" y="173.6" font-family="Arial, sans-serif" font-size="12" fill="#475569">
          дверь
        </text>
      </g>
    
    <g>
      <line x1="804" y1="258" x2="804" y2="386" stroke="#38bdf8" stroke-width="8" stroke-linecap="round"/>
      <text x="820" y="322" font-family="Arial, sans-serif" font-size="12" font-weight="700" fill="#38bdf8" text-anchor="start">
        основное окно
      </text>
    </g>
  

  
    <g>
      <rect x="428.4" y="168.4" width="307.2" height="294.4" rx="10" fill="#e5e7eb" stroke="#94a3b8" stroke-width="1.8"/>
      <rect x="432.4" y="172.4" width="299.2" height="286.4" rx="8" fill="url(#rugPattern)" opacity="0.9"/>
      <text x="582" y="320.6" text-anchor="middle" font-family="Arial, sans-serif" font-size="14" font-weight="700" fill="#475569">
        Ковёр под к…
      </text>
    </g>
  

  
    <g>
      <rect x="447.6" y="475.6" width="204.8" height="256" rx="10" fill="#FFFFFF" stroke="#b8b8b8" stroke-width="2.2"/>
      <rect x="447.6" y="475.6" width="204.8" height="10" rx="8" fill="#b8b8b8" opacity="0.9"/>
      <rect x="457.6" y="491.6" width="86.4" height="20" rx="6" fill="#ffffff" opacity="0.85"/>
      <rect x="556" y="491.6" width="86.4" height="20" rx="6" fill="#ffffff" opacity="0.85"/>
      <rect x="457.6" y="519.6" width="184.8" height="202" rx="8" fill="rgba(255,255,255,0.16)" stroke="rgba(255,255,255,0.35)" stroke-width="1"/>
      
        <text
          x="550"
          y="610.1"
          text-anchor="middle"
          font-family="Arial, sans-serif"
          font-size="16"
          font-weight="700"
          fill="#0f172a"
        >
          Кровать 140…
        </text>
      
    </g>
  
    <g>
      <rect x="716.4" y="494.8" width="76.8" height="204.8" rx="8" fill="#FFFFFF" stroke="#b8b8b8" stroke-width="2"/>
      <rect x="746.35" y="707.6" width="16.9" height="10" rx="5" fill="#cbd5e1" stroke="#64748b" stroke-width="1"/>
      
        <text
          x="754.8"
          y="594.2"
          text-anchor="middle"
          font-family="Arial, sans-serif"
          font-size="9"
          font-weight="700"
          fill="#0f172a"
        >
          Стол у
        </text>
      
        <text
          x="754.8"
          y="606.2"
          text-anchor="middle"
          font-family="Arial, sans-serif"
          font-size="9"
          font-weight="700"
          fill="#0f172a"
        >
          окна
        </text>
      
    </g>
  
    <g>
      <rect x="351.6" y="533.2" width="76.8" height="76.8" rx="8" fill="#D8D8D8" stroke="#9c9c9c" stroke-width="2"/>
      <rect x="381.55" y="618" width="16.9" height="10" rx="5" fill="#cbd5e1" stroke="#64748b" stroke-width="1"/>
      
        <text
          x="390"
          y="568.6"
          text-anchor="middle"
          font-family="Arial, sans-serif"
          font-size="9"
          font-weight="700"
          fill="#0f172a"
        >
          Стул у
        </text>
      
        <text
          x="390"
          y="580.6"
          text-anchor="middle"
          font-family="Arial, sans-serif"
          font-size="9"
          font-weight="700"
          fill="#0f172a"
        >
          стола
        </text>
      
    </g>
  
    <g>
      <rect x="351.6" y="456.4" width="51.2" height="51.2" rx="10" fill="#F5F5F5" stroke="#b0b0b0" stroke-width="2.2"/>
      <rect x="351.6" y="456.4" width="51.2" height="10" rx="8" fill="#b0b0b0" opacity="0.9"/>
      <rect x="361.6" y="472.4" width="24" height="14" rx="6" fill="#ffffff" opacity="0.85"/>
      <rect x="383.2" y="472.4" width="24" height="14" rx="6" fill="#ffffff" opacity="0.85"/>
      <rect x="361.6" y="500.4" width="31.2" height="0" rx="8" fill="rgba(255,255,255,0.16)" stroke="rgba(255,255,255,0.35)" stroke-width="1"/>
      
        <text
          x="377.2"
          y="485"
          text-anchor="middle"
          font-family="Arial, sans-serif"
          font-size="9"
          font-weight="700"
          fill="#0f172a"
        >
          Прик…
        </text>
      
    </g>
  
    <g>
      <rect x="754.8" y="398.8" width="51.2" height="51.2" rx="10" fill="#FFFFFF" stroke="#b8b8b8" stroke-width="2.2"/>
      <rect x="754.8" y="398.8" width="51.2" height="10" rx="8" fill="#b8b8b8" opacity="0.9"/>
      <rect x="764.8" y="414.8" width="24" height="14" rx="6" fill="#ffffff" opacity="0.85"/>
      <rect x="786.4" y="414.8" width="24" height="14" rx="6" fill="#ffffff" opacity="0.85"/>
      <rect x="764.8" y="442.8" width="31.2" height="0" rx="8" fill="rgba(255,255,255,0.16)" stroke="rgba(255,255,255,0.35)" stroke-width="1"/>
      
        <text
          x="780.4"
          y="421.4"
          text-anchor="middle"
          font-family="Arial, sans-serif"
          font-size="9"
          font-weight="700"
          fill="#0f172a"
        >
          Торш…
        </text>
      
        <text
          x="780.4"
          y="433.4"
          text-anchor="middle"
          font-family="Arial, sans-serif"
          font-size="9"
          font-weight="700"
          fill="#0f172a"
        >
          у кр…
        </text>
      
    </g>
  

  
    <text x="550" y="114" text-anchor="middle" font-family="Arial, sans-serif" font-size="15" font-weight="700" fill="#334155">
      4 м
    </text>

    <text
      x="276"
      y="450"
      transform="rotate(-90 276 450)"
      text-anchor="middle"
      font-family="Arial, sans-serif"
      font-size="15"
      font-weight="700"
      fill="#334155"
    >
      5 м
    </text>
  

  <text x="60" y="820" font-family="Arial, sans-serif" font-size="14" fill="#64748b">
    Вид сверху. Схема построена автоматически по координатам мебели и проёмов. Это концептуальный план, а не строительный чертёж.
  </text>
</svg>