<svg width="1100" height="860" viewBox="0 0 1100 860" xmlns="http://www.w3.org/2000/svg">
  <defs>
    <pattern id="rugPattern" patternUnits="userSpaceOnUse" width="12" height="12" patternTransform="rotate(45)">
      <line x1="0" y1="0" x2="0" y2="12" stroke="#94a3b8" stroke-width="2" opacity="0.55"/>
    </pattern>
    <pattern id="rugDots" patternUnits="userSpaceOnUse" width="10" height="10">
      <circle cx="3" cy="3" r="1.2" fill="#94a3b8" opacity="0.35"/>
    </pattern>
  </defs>

  <rect width="1100" height="860" fill="#f8fafc"/>
  <rect x="24" y="20" width="1052" height="820" rx="28" fill="#ffffff" stroke="#e2e8f0" stroke-width="2"/>

  <text x="60" y="60" font-family="Arial, sans-serif" font-size="16" font-weight="700" fill="#059669">
    ПЛАН РАССТАНОВКИ
  </text>

  <text x="60" y="96" font-family="Arial, sans-serif" font-size="30" font-weight="700" fill="#0f172a">
    Классический кабинет с письменным столом у окна
  </text>

  <text x="1040" y="60" text-anchor="end" font-family="Arial, sans-serif" font-size="15" fill="#475569">
    Кабинет
  </text>

  <text x="1040" y="84" text-anchor="end" font-family="Arial, sans-serif" font-size="15" fill="#475569">
    Размер: 3.5 × 4 м
  </text>

  <text x="1040" y="108" text-anchor="end" font-family="Arial, sans-serif" font-size="13" fill="#64748b">
    Точность: low
  </text>

  
      <line x1="430" y1="130" x2="430" y2="770" stroke="#e2e8f0" stroke-width="1" stroke-dasharray="5 7"/>
    
      <line x1="590" y1="130" x2="590" y2="770" stroke="#e2e8f0" stroke-width="1" stroke-dasharray="5 7"/>
    
      <line x1="270" y1="290" x2="830" y2="290" stroke="#e2e8f0" stroke-width="1" stroke-dasharray="5 7"/>
    
      <line x1="270" y1="450" x2="830" y2="450" stroke="#e2e8f0" stroke-width="1" stroke-dasharray="5 7"/>
    
      <line x1="270" y1="610" x2="830" y2="610" stroke="#e2e8f0" stroke-width="1" stroke-dasharray="5 7"/>
    

  <rect
    x="270"
    y="130"
    width="560"
    height="640"
    rx="8"
    fill="#fffefc"
    stroke="#1e293b"
    stroke-width="4"
  />

  
    <g>
      <line x1="828" y1="322" x2="828" y2="498" stroke="#38bdf8" stroke-width="8" stroke-linecap="round"/>
      <text x="844" y="410" font-family="Arial, sans-serif" font-size="12" font-weight="700" fill="#38bdf8" text-anchor="start">
        окно
      </text>
    </g>
  

  
    <g>
      <rect x="318" y="418" width="384" height="352" rx="10" fill="#e5e7eb" stroke="#94a3b8" stroke-width="1.8"/>
      <rect x="322" y="422" width="376" height="344" rx="8" fill="url(#rugPattern)" opacity="0.9"/>
      <text x="510" y="599" text-anchor="middle" font-family="Arial, sans-serif" font-size="14" font-weight="700" fill="#475569">
        ковёр
      </text>
    </g>
  

  
    <g>
      <rect x="630" y="178" width="112" height="224" rx="10" fill="#cbd5e1" stroke="#9299a2" stroke-width="2.2"/>
      <rect x="630" y="178" width="112" height="10" rx="8" fill="#9299a2" opacity="0.9"/>
      <rect x="640" y="194" width="40" height="20" rx="6" fill="#ffffff" opacity="0.85"/>
      <rect x="692" y="194" width="40" height="20" rx="6" fill="#ffffff" opacity="0.85"/>
      <rect x="640" y="222" width="92" height="170" rx="8" fill="rgba(255,255,255,0.16)" stroke="rgba(255,255,255,0.35)" stroke-width="1"/>
      
        <text
          x="686"
          y="295"
          text-anchor="middle"
          font-family="Arial, sans-serif"
          font-size="13"
          font-weight="700"
          fill="#0f172a"
        >
          письменны…
        </text>
      
    </g>
  
    <g>
      <rect x="462" y="226" width="144" height="96" rx="10" fill="#cbd5e1" stroke="#9299a2" stroke-width="2.2"/>
      <rect x="462" y="226" width="144" height="10" rx="8" fill="#9299a2" opacity="0.9"/>
      <rect x="472" y="242" width="56" height="15.36" rx="6" fill="#ffffff" opacity="0.85"/>
      <rect x="540" y="242" width="56" height="15.36" rx="6" fill="#ffffff" opacity="0.85"/>
      <rect x="472" y="270" width="124" height="42" rx="8" fill="rgba(255,255,255,0.16)" stroke="rgba(255,255,255,0.35)" stroke-width="1"/>
      
        <text
          x="534"
          y="280.5"
          text-anchor="middle"
          font-family="Arial, sans-serif"
          font-size="16"
          font-weight="700"
          fill="#0f172a"
        >
          шкаф высокий
        </text>
      
    </g>
  
    <g>
      <rect x="726" y="514" width="96" height="96" rx="10" fill="#cbd5e1" stroke="#9299a2" stroke-width="2.2"/>
      <rect x="726" y="514" width="96" height="10" rx="8" fill="#9299a2" opacity="0.9"/>
      <rect x="736" y="530" width="32" height="15.36" rx="6" fill="#ffffff" opacity="0.85"/>
      <rect x="780" y="530" width="32" height="15.36" rx="6" fill="#ffffff" opacity="0.85"/>
      <rect x="736" y="558" width="76" height="42" rx="8" fill="rgba(255,255,255,0.16)" stroke="rgba(255,255,255,0.35)" stroke-width="1"/>
      
        <text
          x="774"
          y="559"
          text-anchor="middle"
          font-family="Arial, sans-serif"
          font-size="11"
          font-weight="700"
          fill="#0f172a"
        >
          рабочее
        </text>
      
        <text
          x="774"
          y="573"
          text-anchor="middle"
          font-family="Arial, sans-serif"
          font-size="11"
          font-weight="700"
          fill="#0f172a"
        >
          кре…
        </text>
      
    </g>
  
    <g>
      <rect x="366" y="346" width="128" height="56" rx="10" fill="#cbd5e1" stroke="#9299a2" stroke-width="2.2"/>
      <rect x="366" y="346" width="128" height="10" rx="8" fill="#9299a2" opacity="0.9"/>
      <rect x="376" y="362" width="48" height="14" rx="6" fill="#ffffff" opacity="0.85"/>
      <rect x="436" y="362" width="48" height="14" rx="6" fill="#ffffff" opacity="0.85"/>
      <rect x="376" y="390" width="108" height="2" rx="8" fill="rgba(255,255,255,0.16)" stroke="rgba(255,255,255,0.35)" stroke-width="1"/>
      
        <text
          x="430"
          y="371"
          text-anchor="middle"
          font-family="Arial, sans-serif"
          font-size="15"
          font-weight="700"
          fill="#0f172a"
        >
          стеллаж
        </text>
      
        <text
          x="430"
          y="389"
          text-anchor="middle"
          font-family="Arial, sans-serif"
          font-size="15"
          font-weight="700"
          fill="#0f172a"
        >
          отк…
        </text>
      
    </g>
  
    <g>
      <rect x="294" y="202" width="56" height="56" rx="10" fill="#cbd5e1" stroke="#9299a2" stroke-width="2.2"/>
      <rect x="294" y="202" width="56" height="10" rx="8" fill="#9299a2" opacity="0.9"/>
      <rect x="304" y="218" width="24" height="14" rx="6" fill="#ffffff" opacity="0.85"/>
      <rect x="328" y="218" width="24" height="14" rx="6" fill="#ffffff" opacity="0.85"/>
      <rect x="304" y="246" width="36" height="2" rx="8" fill="rgba(255,255,255,0.16)" stroke="rgba(255,255,255,0.35)" stroke-width="1"/>
      
        <text
          x="322"
          y="227"
          text-anchor="middle"
          font-family="Arial, sans-serif"
          font-size="9"
          font-weight="700"
          fill="#0f172a"
        >
          торш…
        </text>
      
        <text
          x="322"
          y="239"
          text-anchor="middle"
          font-family="Arial, sans-serif"
          font-size="9"
          font-weight="700"
          fill="#0f172a"
        >
          у ди…
        </text>
      
    </g>
  
    <g>
      <rect x="774" y="634" width="56" height="56" rx="10" fill="#cbd5e1" stroke="#9299a2" stroke-width="2.2"/>
      <rect x="774" y="634" width="56" height="10" rx="8" fill="#9299a2" opacity="0.9"/>
      <rect x="784" y="650" width="24" height="14" rx="6" fill="#ffffff" opacity="0.85"/>
      <rect x="808" y="650" width="24" height="14" rx="6" fill="#ffffff" opacity="0.85"/>
      <rect x="784" y="678" width="36" height="2" rx="8" fill="rgba(255,255,255,0.16)" stroke="rgba(255,255,255,0.35)" stroke-width="1"/>
      
        <text
          x="802"
          y="659"
          text-anchor="middle"
          font-family="Arial, sans-serif"
          font-size="9"
          font-weight="700"
          fill="#0f172a"
        >
          торш…
        </text>
      
        <text
          x="802"
          y="671"
          text-anchor="middle"
          font-family="Arial, sans-serif"
          font-size="9"
          font-weight="700"
          fill="#0f172a"
        >
          у ст…
        </text>
      
    </g>
  

  
    <text x="550" y="114" text-anchor="middle" font-family="Arial, sans-serif" font-size="15" font-weight="700" fill="#334155">
      3.5 м
    </text>

    <text
      x="252"
      y="450"
      transform="rotate(-90 252 450)"
      text-anchor="middle"
      font-family="Arial, sans-serif"
      font-size="15"
      font-weight="700"
      fill="#334155"
    >
      4 м
    </text>
  

  <text x="60" y="820" font-family="Arial, sans-serif" font-size="14" fill="#64748b">
    Вид сверху. Схема построена автоматически по координатам мебели и проёмов. Это концептуальный план, а не строительный чертёж.
  </text>
</svg>