<svg width="1100" height="860" viewBox="0 0 1100 860" xmlns="http://www.w3.org/2000/svg">
  <defs>
    <pattern id="rugPattern" patternUnits="userSpaceOnUse" width="12" height="12" patternTransform="rotate(45)">
      <line x1="0" y1="0" x2="0" y2="12" stroke="#94a3b8" stroke-width="2" opacity="0.55"/>
    </pattern>
    <pattern id="rugDots" patternUnits="userSpaceOnUse" width="10" height="10">
      <circle cx="3" cy="3" r="1.2" fill="#94a3b8" opacity="0.35"/>
    </pattern>
  </defs>

  <rect width="1100" height="860" fill="#f8fafc"/>
  <rect x="24" y="20" width="1052" height="820" rx="28" fill="#ffffff" stroke="#e2e8f0" stroke-width="2"/>

  <text x="60" y="60" font-family="Arial, sans-serif" font-size="16" font-weight="700" fill="#059669">
    ПЛАН РАССТАНОВКИ
  </text>

  <text x="60" y="96" font-family="Arial, sans-serif" font-size="30" font-weight="700" fill="#0f172a">
    Классическая спальня с кроватью напротив окна
  </text>

  <text x="1040" y="60" text-anchor="end" font-family="Arial, sans-serif" font-size="15" fill="#475569">
    Спальня
  </text>

  <text x="1040" y="84" text-anchor="end" font-family="Arial, sans-serif" font-size="15" fill="#475569">
    Размер: 4 × 5 м
  </text>

  <text x="1040" y="108" text-anchor="end" font-family="Arial, sans-serif" font-size="13" fill="#64748b">
    Точность: low
  </text>

  
      <line x1="422" y1="130" x2="422" y2="770" stroke="#e2e8f0" stroke-width="1" stroke-dasharray="5 7"/>
    
      <line x1="550" y1="130" x2="550" y2="770" stroke="#e2e8f0" stroke-width="1" stroke-dasharray="5 7"/>
    
      <line x1="678" y1="130" x2="678" y2="770" stroke="#e2e8f0" stroke-width="1" stroke-dasharray="5 7"/>
    
      <line x1="294" y1="258" x2="806" y2="258" stroke="#e2e8f0" stroke-width="1" stroke-dasharray="5 7"/>
    
      <line x1="294" y1="386" x2="806" y2="386" stroke="#e2e8f0" stroke-width="1" stroke-dasharray="5 7"/>
    
      <line x1="294" y1="514" x2="806" y2="514" stroke="#e2e8f0" stroke-width="1" stroke-dasharray="5 7"/>
    
      <line x1="294" y1="642" x2="806" y2="642" stroke="#e2e8f0" stroke-width="1" stroke-dasharray="5 7"/>
    

  <rect
    x="294"
    y="130"
    width="512"
    height="640"
    rx="8"
    fill="#fffefc"
    stroke="#1e293b"
    stroke-width="4"
  />

  
    <g>
      <line x1="804" y1="258" x2="804" y2="450" stroke="#38bdf8" stroke-width="8" stroke-linecap="round"/>
      <text x="820" y="354" font-family="Arial, sans-serif" font-size="12" font-weight="700" fill="#38bdf8" text-anchor="start">
        Окно смещено к нижнему правому углу стены
      </text>
    </g>
  

  
    <g>
      <rect x="511.6" y="604.24" width="320" height="147.84" rx="10" fill="#e5e7eb" stroke="#94a3b8" stroke-width="1.8"/>
      <rect x="515.6" y="608.24" width="312" height="139.84" rx="8" fill="url(#rugPattern)" opacity="0.9"/>
      <text x="671.6" y="683.16" text-anchor="middle" font-family="Arial, sans-serif" font-size="14" font-weight="700" fill="#475569">
        Ковёр
      </text>
    </g>
  

  
    <g>
      <rect x="543.6" y="456.4" width="256" height="268.8" rx="10" fill="#cbd5e1" stroke="#9299a2" stroke-width="2.2"/>
      <rect x="543.6" y="456.4" width="256" height="10" rx="8" fill="#9299a2" opacity="0.9"/>
      <rect x="553.6" y="472.4" width="112" height="20" rx="6" fill="#ffffff" opacity="0.85"/>
      <rect x="677.6" y="472.4" width="112" height="20" rx="6" fill="#ffffff" opacity="0.85"/>
      <rect x="553.6" y="500.4" width="236" height="214.8" rx="8" fill="rgba(255,255,255,0.16)" stroke="rgba(255,255,255,0.35)" stroke-width="1"/>
      
        <text
          x="671.6"
          y="597.3"
          text-anchor="middle"
          font-family="Arial, sans-serif"
          font-size="16"
          font-weight="700"
          fill="#0f172a"
        >
          Двуспальная…
        </text>
      
    </g>
  
    <g>
      <rect x="639.6" y="283.6" width="89.6" height="153.6" rx="10" fill="#cbd5e1" stroke="#9299a2" stroke-width="2.2"/>
      <rect x="639.6" y="283.6" width="89.6" height="10" rx="8" fill="#9299a2" opacity="0.9"/>
      <rect x="649.6" y="299.6" width="28.8" height="20" rx="6" fill="#ffffff" opacity="0.85"/>
      <rect x="690.4" y="299.6" width="28.8" height="20" rx="6" fill="#ffffff" opacity="0.85"/>
      <rect x="649.6" y="327.6" width="69.6" height="99.6" rx="8" fill="rgba(255,255,255,0.16)" stroke="rgba(255,255,255,0.35)" stroke-width="1"/>
      
        <text
          x="684.4"
          y="363.9"
          text-anchor="middle"
          font-family="Arial, sans-serif"
          font-size="10"
          font-weight="700"
          fill="#0f172a"
        >
          Встроен…
        </text>
      
    </g>
  
    <g>
      <rect x="447.6" y="571.6" width="76.8" height="179.2" rx="10" fill="#cbd5e1" stroke="#9299a2" stroke-width="2.2"/>
      <rect x="447.6" y="571.6" width="76.8" height="10" rx="8" fill="#9299a2" opacity="0.9"/>
      <rect x="457.6" y="587.6" width="24" height="20" rx="6" fill="#ffffff" opacity="0.85"/>
      <rect x="492" y="587.6" width="24" height="20" rx="6" fill="#ffffff" opacity="0.85"/>
      <rect x="457.6" y="615.6" width="56.8" height="125.2" rx="8" fill="rgba(255,255,255,0.16)" stroke="rgba(255,255,255,0.35)" stroke-width="1"/>
      
        <text
          x="486"
          y="664.2"
          text-anchor="middle"
          font-family="Arial, sans-serif"
          font-size="9"
          font-weight="700"
          fill="#0f172a"
        >
          Письм…
        </text>
      
    </g>
  

  
    <text x="550" y="114" text-anchor="middle" font-family="Arial, sans-serif" font-size="15" font-weight="700" fill="#334155">
      4 м
    </text>

    <text
      x="276"
      y="450"
      transform="rotate(-90 276 450)"
      text-anchor="middle"
      font-family="Arial, sans-serif"
      font-size="15"
      font-weight="700"
      fill="#334155"
    >
      5 м
    </text>
  

  <text x="60" y="820" font-family="Arial, sans-serif" font-size="14" fill="#64748b">
    Вид сверху. Схема построена автоматически по координатам мебели и проёмов. Это концептуальный план, а не строительный чертёж.
  </text>
</svg>