<svg width="1100" height="860" viewBox="0 0 1100 860" xmlns="http://www.w3.org/2000/svg">
  <defs>
    <pattern id="rugPattern" patternUnits="userSpaceOnUse" width="12" height="12" patternTransform="rotate(45)">
      <line x1="0" y1="0" x2="0" y2="12" stroke="#94a3b8" stroke-width="2" opacity="0.55"/>
    </pattern>
    <pattern id="rugDots" patternUnits="userSpaceOnUse" width="10" height="10">
      <circle cx="3" cy="3" r="1.2" fill="#94a3b8" opacity="0.35"/>
    </pattern>
  </defs>

  <rect width="1100" height="860" fill="#f8fafc"/>
  <rect x="24" y="20" width="1052" height="820" rx="28" fill="#ffffff" stroke="#e2e8f0" stroke-width="2"/>

  <text x="60" y="60" font-family="Arial, sans-serif" font-size="16" font-weight="700" fill="#059669">
    ПЛАН РАССТАНОВКИ
  </text>

  <text x="60" y="96" font-family="Arial, sans-serif" font-size="30" font-weight="700" fill="#0f172a">
    Спальня с кроватью у верхней стены и свободным окном
  </text>

  <text x="1040" y="60" text-anchor="end" font-family="Arial, sans-serif" font-size="15" fill="#475569">
    Спальня
  </text>

  <text x="1040" y="84" text-anchor="end" font-family="Arial, sans-serif" font-size="15" fill="#475569">
    Размер: 4 × 5 м
  </text>

  <text x="1040" y="108" text-anchor="end" font-family="Arial, sans-serif" font-size="13" fill="#64748b">
    Точность: low
  </text>

  
      <line x1="422" y1="130" x2="422" y2="770" stroke="#e2e8f0" stroke-width="1" stroke-dasharray="5 7"/>
    
      <line x1="550" y1="130" x2="550" y2="770" stroke="#e2e8f0" stroke-width="1" stroke-dasharray="5 7"/>
    
      <line x1="678" y1="130" x2="678" y2="770" stroke="#e2e8f0" stroke-width="1" stroke-dasharray="5 7"/>
    
      <line x1="294" y1="258" x2="806" y2="258" stroke="#e2e8f0" stroke-width="1" stroke-dasharray="5 7"/>
    
      <line x1="294" y1="386" x2="806" y2="386" stroke="#e2e8f0" stroke-width="1" stroke-dasharray="5 7"/>
    
      <line x1="294" y1="514" x2="806" y2="514" stroke="#e2e8f0" stroke-width="1" stroke-dasharray="5 7"/>
    
      <line x1="294" y1="642" x2="806" y2="642" stroke="#e2e8f0" stroke-width="1" stroke-dasharray="5 7"/>
    

  <rect
    x="294"
    y="130"
    width="512"
    height="640"
    rx="8"
    fill="#fffefc"
    stroke="#1e293b"
    stroke-width="4"
  />

  
      <g>
        <line x1="294" y1="168.4" x2="396.4" y2="270.8" stroke="#475569" stroke-width="2"/>
        <path d="M 294 168.4 A 102.4 102.4 0 0 1 396.4 270.8" fill="none" stroke="#94a3b8" stroke-width="1.8" stroke-dasharray="5 5"/>
        <text x="308" y="186.4" font-family="Arial, sans-serif" font-size="12" fill="#475569">
          дверь
        </text>
      </g>
    
    <g>
      <line x1="804" y1="258" x2="804" y2="411.6" stroke="#38bdf8" stroke-width="8" stroke-linecap="round"/>
      <text x="820" y="334.8" font-family="Arial, sans-serif" font-size="12" font-weight="700" fill="#38bdf8" text-anchor="start">
        окно
      </text>
    </g>
  

  
    <g>
      <rect x="466.8" y="418" width="332.8" height="281.6" rx="10" fill="#e5e7eb" stroke="#94a3b8" stroke-width="1.8"/>
      <rect x="470.8" y="422" width="324.8" height="273.6" rx="8" fill="url(#rugPattern)" opacity="0.9"/>
      <text x="633.2" y="563.8" text-anchor="middle" font-family="Arial, sans-serif" font-size="14" font-weight="700" fill="#475569">
        Ковёр части…
      </text>
    </g>
  

  
    <g>
      <rect x="466.8" y="187.6" width="256" height="204.8" rx="10" fill="#FFFFFF" stroke="#b8b8b8" stroke-width="2.2"/>
      <rect x="466.8" y="187.6" width="256" height="10" rx="8" fill="#b8b8b8" opacity="0.9"/>
      <rect x="476.8" y="203.6" width="112" height="20" rx="6" fill="#ffffff" opacity="0.85"/>
      <rect x="600.8" y="203.6" width="112" height="20" rx="6" fill="#ffffff" opacity="0.85"/>
      <rect x="476.8" y="231.6" width="236" height="150.8" rx="8" fill="rgba(255,255,255,0.16)" stroke="rgba(255,255,255,0.35)" stroke-width="1"/>
      
        <text
          x="594.8"
          y="296.5"
          text-anchor="middle"
          font-family="Arial, sans-serif"
          font-size="16"
          font-weight="700"
          fill="#0f172a"
        >
          Кровать 140…
        </text>
      
    </g>
  
    <g>
      <rect x="294" y="571.6" width="153.6" height="57.6" rx="8" fill="#F5F5F5" stroke="#b0b0b0" stroke-width="2"/>
      <line x1="300" y1="590.8" x2="441.6" y2="590.8" stroke="#b0b0b0" stroke-width="1.3"/>
      <line x1="300" y1="610" x2="441.6" y2="610" stroke="#b0b0b0" stroke-width="1.3"/>
      
        <text
          x="370.8"
          y="606.9"
          text-anchor="middle"
          font-family="Arial, sans-serif"
          font-size="16"
          font-weight="700"
          fill="#0f172a"
        >
          Комод у ниж…
        </text>
      
    </g>
  
    <g>
      <rect x="390" y="418" width="64" height="128" rx="8" fill="#FFFFFF" stroke="#b8b8b8" stroke-width="2"/>
      <rect x="414.96" y="554" width="14.08" height="10" rx="5" fill="#cbd5e1" stroke="#64748b" stroke-width="1"/>
      
        <text
          x="422"
          y="479"
          text-anchor="middle"
          font-family="Arial, sans-serif"
          font-size="9"
          font-weight="700"
          fill="#0f172a"
        >
          Стол
        </text>
      
        <text
          x="422"
          y="491"
          text-anchor="middle"
          font-family="Arial, sans-serif"
          font-size="9"
          font-weight="700"
          fill="#0f172a"
        >
          у
        </text>
      
    </g>
  
    <g>
      <rect x="313.2" y="494.8" width="64" height="64" rx="8" fill="#D8D8D8" stroke="#9c9c9c" stroke-width="2"/>
      <rect x="338.16" y="566.8" width="14.08" height="10" rx="5" fill="#cbd5e1" stroke="#64748b" stroke-width="1"/>
      
        <text
          x="345.2"
          y="523.8"
          text-anchor="middle"
          font-family="Arial, sans-serif"
          font-size="9"
          font-weight="700"
          fill="#0f172a"
        >
          Стул
        </text>
      
        <text
          x="345.2"
          y="535.8"
          text-anchor="middle"
          font-family="Arial, sans-serif"
          font-size="9"
          font-weight="700"
          fill="#0f172a"
        >
          у
        </text>
      
    </g>
  
    <g>
      <rect x="390" y="283.6" width="51.2" height="51.2" rx="10" fill="#F2F2F2" stroke="#aeaeae" stroke-width="2.2"/>
      <rect x="390" y="283.6" width="51.2" height="10" rx="8" fill="#aeaeae" opacity="0.9"/>
      <rect x="400" y="299.6" width="24" height="14" rx="6" fill="#ffffff" opacity="0.85"/>
      <rect x="421.6" y="299.6" width="24" height="14" rx="6" fill="#ffffff" opacity="0.85"/>
      <rect x="400" y="327.6" width="31.2" height="0" rx="8" fill="rgba(255,255,255,0.16)" stroke="rgba(255,255,255,0.35)" stroke-width="1"/>
      
        <text
          x="415.6"
          y="312.2"
          text-anchor="middle"
          font-family="Arial, sans-serif"
          font-size="9"
          font-weight="700"
          fill="#0f172a"
        >
          Прик…
        </text>
      
    </g>
  
    <g>
      <rect x="754.8" y="187.6" width="51.2" height="51.2" rx="10" fill="#F2F2F2" stroke="#aeaeae" stroke-width="2.2"/>
      <rect x="754.8" y="187.6" width="51.2" height="10" rx="8" fill="#aeaeae" opacity="0.9"/>
      <rect x="764.8" y="203.6" width="24" height="14" rx="6" fill="#ffffff" opacity="0.85"/>
      <rect x="786.4" y="203.6" width="24" height="14" rx="6" fill="#ffffff" opacity="0.85"/>
      <rect x="764.8" y="231.6" width="31.2" height="0" rx="8" fill="rgba(255,255,255,0.16)" stroke="rgba(255,255,255,0.35)" stroke-width="1"/>
      
        <text
          x="780.4"
          y="216.2"
          text-anchor="middle"
          font-family="Arial, sans-serif"
          font-size="9"
          font-weight="700"
          fill="#0f172a"
        >
          Прик…
        </text>
      
    </g>
  
    <g>
      <circle cx="681.2" cy="747.6" r="17.23" fill="#FFFFFF" stroke="#b8b8b8" stroke-width="2"/>
      <circle cx="681.2" cy="747.6" r="5.74" fill="#ffffff" opacity="0.7"/>
      <line x1="681.2" y1="731.2" x2="681.2" y2="764" stroke="#b8b8b8" stroke-width="1.4" opacity="0.7"/>
      
        <text
          x="681.2"
          y="744.6"
          text-anchor="middle"
          font-family="Arial, sans-serif"
          font-size="9"
          font-weight="700"
          fill="#0f172a"
        >
          Торш…
        </text>
      
        <text
          x="681.2"
          y="756.6"
          text-anchor="middle"
          font-family="Arial, sans-serif"
          font-size="9"
          font-weight="700"
          fill="#0f172a"
        >
          у ко…
        </text>
      
    </g>
  

  
    <text x="550" y="114" text-anchor="middle" font-family="Arial, sans-serif" font-size="15" font-weight="700" fill="#334155">
      4 м
    </text>

    <text
      x="276"
      y="450"
      transform="rotate(-90 276 450)"
      text-anchor="middle"
      font-family="Arial, sans-serif"
      font-size="15"
      font-weight="700"
      fill="#334155"
    >
      5 м
    </text>
  

  <text x="60" y="820" font-family="Arial, sans-serif" font-size="14" fill="#64748b">
    Вид сверху. Схема построена автоматически по координатам мебели и проёмов. Это концептуальный план, а не строительный чертёж.
  </text>
</svg>