<svg width="1100" height="860" viewBox="0 0 1100 860" xmlns="http://www.w3.org/2000/svg">
  <defs>
    <pattern id="rugPattern" patternUnits="userSpaceOnUse" width="12" height="12" patternTransform="rotate(45)">
      <line x1="0" y1="0" x2="0" y2="12" stroke="#94a3b8" stroke-width="2" opacity="0.55"/>
    </pattern>
    <pattern id="rugDots" patternUnits="userSpaceOnUse" width="10" height="10">
      <circle cx="3" cy="3" r="1.2" fill="#94a3b8" opacity="0.35"/>
    </pattern>
  </defs>

  <rect width="1100" height="860" fill="#f8fafc"/>
  <rect x="24" y="20" width="1052" height="820" rx="28" fill="#ffffff" stroke="#e2e8f0" stroke-width="2"/>

  <text x="60" y="60" font-family="Arial, sans-serif" font-size="16" font-weight="700" fill="#059669">
    ПЛАН РАССТАНОВКИ
  </text>

  <text x="60" y="96" font-family="Arial, sans-serif" font-size="30" font-weight="700" fill="#0f172a">
    Минималистичная спальня с кроватью у нижней стены
  </text>

  <text x="1040" y="60" text-anchor="end" font-family="Arial, sans-serif" font-size="15" fill="#475569">
    Спальня
  </text>

  <text x="1040" y="84" text-anchor="end" font-family="Arial, sans-serif" font-size="15" fill="#475569">
    Размер: 4 × 5 м
  </text>

  <text x="1040" y="108" text-anchor="end" font-family="Arial, sans-serif" font-size="13" fill="#64748b">
    Точность: low
  </text>

  
      <line x1="422" y1="130" x2="422" y2="770" stroke="#e2e8f0" stroke-width="1" stroke-dasharray="5 7"/>
    
      <line x1="550" y1="130" x2="550" y2="770" stroke="#e2e8f0" stroke-width="1" stroke-dasharray="5 7"/>
    
      <line x1="678" y1="130" x2="678" y2="770" stroke="#e2e8f0" stroke-width="1" stroke-dasharray="5 7"/>
    
      <line x1="294" y1="258" x2="806" y2="258" stroke="#e2e8f0" stroke-width="1" stroke-dasharray="5 7"/>
    
      <line x1="294" y1="386" x2="806" y2="386" stroke="#e2e8f0" stroke-width="1" stroke-dasharray="5 7"/>
    
      <line x1="294" y1="514" x2="806" y2="514" stroke="#e2e8f0" stroke-width="1" stroke-dasharray="5 7"/>
    
      <line x1="294" y1="642" x2="806" y2="642" stroke="#e2e8f0" stroke-width="1" stroke-dasharray="5 7"/>
    

  <rect
    x="294"
    y="130"
    width="512"
    height="640"
    rx="8"
    fill="#fffefc"
    stroke="#1e293b"
    stroke-width="4"
  />

  
      <g>
        <line x1="294" y1="168.4" x2="396.4" y2="270.8" stroke="#475569" stroke-width="2"/>
        <path d="M 294 168.4 A 102.4 102.4 0 0 1 396.4 270.8" fill="none" stroke="#94a3b8" stroke-width="1.8" stroke-dasharray="5 5"/>
        <text x="308" y="186.4" font-family="Arial, sans-serif" font-size="12" fill="#475569">
          дверь
        </text>
      </g>
    
    <g>
      <line x1="804" y1="258" x2="804" y2="411.6" stroke="#38bdf8" stroke-width="8" stroke-linecap="round"/>
      <text x="820" y="334.8" font-family="Arial, sans-serif" font-size="12" font-weight="700" fill="#38bdf8" text-anchor="start">
        окно
      </text>
    </g>
  

  
    <g>
      <rect x="486" y="514" width="307.2" height="256" rx="10" fill="#e5e7eb" stroke="#94a3b8" stroke-width="1.8"/>
      <rect x="490" y="518" width="299.2" height="248" rx="8" fill="url(#rugPattern)" opacity="0.9"/>
      <text x="639.6" y="647" text-anchor="middle" font-family="Arial, sans-serif" font-size="14" font-weight="700" fill="#475569">
        Большой ков…
      </text>
    </g>
  

  
    <g>
      <rect x="466.8" y="226" width="256" height="217.6" rx="10" fill="#FFFFFF" stroke="#b8b8b8" stroke-width="2.2"/>
      <rect x="466.8" y="226" width="256" height="10" rx="8" fill="#b8b8b8" opacity="0.9"/>
      <rect x="476.8" y="242" width="112" height="20" rx="6" fill="#ffffff" opacity="0.85"/>
      <rect x="600.8" y="242" width="112" height="20" rx="6" fill="#ffffff" opacity="0.85"/>
      <rect x="476.8" y="270" width="236" height="163.6" rx="8" fill="rgba(255,255,255,0.16)" stroke="rgba(255,255,255,0.35)" stroke-width="1"/>
      
        <text
          x="594.8"
          y="341.3"
          text-anchor="middle"
          font-family="Arial, sans-serif"
          font-size="16"
          font-weight="700"
          fill="#0f172a"
        >
          Кровать 160…
        </text>
      
    </g>
  
    <g>
      <rect x="294" y="456.4" width="179.2" height="57.6" rx="8" fill="#FFFFFF" stroke="#b8b8b8" stroke-width="2"/>
      <line x1="300" y1="475.6" x2="467.2" y2="475.6" stroke="#b8b8b8" stroke-width="1.3"/>
      <line x1="300" y1="494.8" x2="467.2" y2="494.8" stroke="#b8b8b8" stroke-width="1.3"/>
      
        <text
          x="383.6"
          y="491.7"
          text-anchor="middle"
          font-family="Arial, sans-serif"
          font-size="16"
          font-weight="700"
          fill="#0f172a"
        >
          Низкий комо…
        </text>
      
    </g>
  
    <g>
      <rect x="678" y="130" width="128" height="76.8" rx="8" fill="#EAEAEA" stroke="#a8a8a8" stroke-width="2.2"/>
      <line x1="742" y1="136" x2="742" y2="200.8" stroke="#a8a8a8" stroke-width="1.8"/>
      <circle cx="732" cy="168.4" r="2.3" fill="#a8a8a8"/>
      <circle cx="752" cy="168.4" r="2.3" fill="#a8a8a8"/>
      
        <text
          x="742"
          y="174.4"
          text-anchor="middle"
          font-family="Arial, sans-serif"
          font-size="15"
          font-weight="700"
          fill="#0f172a"
        >
          Узкий шкаф…
        </text>
      
    </g>
  
    <g>
      <rect x="370.8" y="541.2" width="89.6" height="81.6" rx="8" fill="#DDDDDD" stroke="#9f9f9f" stroke-width="1.8"/>
      <rect x="376.8" y="533.2" width="77.6" height="10" rx="5" fill="rgba(255,255,255,0.22)" stroke="#9f9f9f" stroke-width="1.2"/>
      
        <text
          x="415.6"
          y="575"
          text-anchor="middle"
          font-family="Arial, sans-serif"
          font-size="10"
          font-weight="700"
          fill="#0f172a"
        >
          Кресло у
        </text>
      
        <text
          x="415.6"
          y="588"
          text-anchor="middle"
          font-family="Arial, sans-serif"
          font-size="10"
          font-weight="700"
          fill="#0f172a"
        >
          ок…
        </text>
      
    </g>
  
    <g>
      <rect x="294" y="552.4" width="51.2" height="51.2" rx="10" fill="#F5F5F5" stroke="#b0b0b0" stroke-width="2.2"/>
      <rect x="294" y="552.4" width="51.2" height="10" rx="8" fill="#b0b0b0" opacity="0.9"/>
      <rect x="304" y="568.4" width="24" height="14" rx="6" fill="#ffffff" opacity="0.85"/>
      <rect x="325.6" y="568.4" width="24" height="14" rx="6" fill="#ffffff" opacity="0.85"/>
      <rect x="304" y="596.4" width="31.2" height="0" rx="8" fill="rgba(255,255,255,0.16)" stroke="rgba(255,255,255,0.35)" stroke-width="1"/>
      
        <text
          x="319.6"
          y="581"
          text-anchor="middle"
          font-family="Arial, sans-serif"
          font-size="9"
          font-weight="700"
          fill="#0f172a"
        >
          Прик…
        </text>
      
    </g>
  
    <g>
      <rect x="754.8" y="437.2" width="51.2" height="51.2" rx="10" fill="#F5F5F5" stroke="#b0b0b0" stroke-width="2.2"/>
      <rect x="754.8" y="437.2" width="51.2" height="10" rx="8" fill="#b0b0b0" opacity="0.9"/>
      <rect x="764.8" y="453.2" width="24" height="14" rx="6" fill="#ffffff" opacity="0.85"/>
      <rect x="786.4" y="453.2" width="24" height="14" rx="6" fill="#ffffff" opacity="0.85"/>
      <rect x="764.8" y="481.2" width="31.2" height="0" rx="8" fill="rgba(255,255,255,0.16)" stroke="rgba(255,255,255,0.35)" stroke-width="1"/>
      
        <text
          x="780.4"
          y="465.8"
          text-anchor="middle"
          font-family="Arial, sans-serif"
          font-size="9"
          font-weight="700"
          fill="#0f172a"
        >
          Прик…
        </text>
      
    </g>
  
    <g>
      <circle cx="642.8" cy="190.8" r="17.23" fill="#FFFFFF" stroke="#b8b8b8" stroke-width="2"/>
      <circle cx="642.8" cy="190.8" r="5.74" fill="#ffffff" opacity="0.7"/>
      <line x1="642.8" y1="174.4" x2="642.8" y2="207.2" stroke="#b8b8b8" stroke-width="1.4" opacity="0.7"/>
      
        <text
          x="642.8"
          y="187.8"
          text-anchor="middle"
          font-family="Arial, sans-serif"
          font-size="9"
          font-weight="700"
          fill="#0f172a"
        >
          Торш…
        </text>
      
        <text
          x="642.8"
          y="199.8"
          text-anchor="middle"
          font-family="Arial, sans-serif"
          font-size="9"
          font-weight="700"
          fill="#0f172a"
        >
          рядо…
        </text>
      
    </g>
  

  
    <text x="550" y="114" text-anchor="middle" font-family="Arial, sans-serif" font-size="15" font-weight="700" fill="#334155">
      4 м
    </text>

    <text
      x="276"
      y="450"
      transform="rotate(-90 276 450)"
      text-anchor="middle"
      font-family="Arial, sans-serif"
      font-size="15"
      font-weight="700"
      fill="#334155"
    >
      5 м
    </text>
  

  <text x="60" y="820" font-family="Arial, sans-serif" font-size="14" fill="#64748b">
    Вид сверху. Схема построена автоматически по координатам мебели и проёмов. Это концептуальный план, а не строительный чертёж.
  </text>
</svg>