<svg width="1100" height="860" viewBox="0 0 1100 860" xmlns="http://www.w3.org/2000/svg">
  <defs>
    <pattern id="rugPattern" patternUnits="userSpaceOnUse" width="12" height="12" patternTransform="rotate(45)">
      <line x1="0" y1="0" x2="0" y2="12" stroke="#94a3b8" stroke-width="2" opacity="0.55"/>
    </pattern>
    <pattern id="rugDots" patternUnits="userSpaceOnUse" width="10" height="10">
      <circle cx="3" cy="3" r="1.2" fill="#94a3b8" opacity="0.35"/>
    </pattern>
  </defs>

  <rect width="1100" height="860" fill="#f8fafc"/>
  <rect x="24" y="20" width="1052" height="820" rx="28" fill="#ffffff" stroke="#e2e8f0" stroke-width="2"/>

  <text x="60" y="60" font-family="Arial, sans-serif" font-size="16" font-weight="700" fill="#059669">
    ПЛАН РАССТАНОВКИ
  </text>

  <text x="60" y="96" font-family="Arial, sans-serif" font-size="30" font-weight="700" fill="#0f172a">
    Кровать изголовьем к правой стене, диван у окна
  </text>

  <text x="1040" y="60" text-anchor="end" font-family="Arial, sans-serif" font-size="15" fill="#475569">
    Спальня
  </text>

  <text x="1040" y="84" text-anchor="end" font-family="Arial, sans-serif" font-size="15" fill="#475569">
    Размер: 3.5 × 4 м
  </text>

  <text x="1040" y="108" text-anchor="end" font-family="Arial, sans-serif" font-size="13" fill="#64748b">
    Точность: low
  </text>

  
      <line x1="430" y1="130" x2="430" y2="770" stroke="#e2e8f0" stroke-width="1" stroke-dasharray="5 7"/>
    
      <line x1="590" y1="130" x2="590" y2="770" stroke="#e2e8f0" stroke-width="1" stroke-dasharray="5 7"/>
    
      <line x1="270" y1="290" x2="830" y2="290" stroke="#e2e8f0" stroke-width="1" stroke-dasharray="5 7"/>
    
      <line x1="270" y1="450" x2="830" y2="450" stroke="#e2e8f0" stroke-width="1" stroke-dasharray="5 7"/>
    
      <line x1="270" y1="610" x2="830" y2="610" stroke="#e2e8f0" stroke-width="1" stroke-dasharray="5 7"/>
    

  <rect
    x="270"
    y="130"
    width="560"
    height="640"
    rx="8"
    fill="#fffefc"
    stroke="#1e293b"
    stroke-width="4"
  />

  
      <g>
        <line x1="270" y1="162" x2="398" y2="290" stroke="#475569" stroke-width="2"/>
        <path d="M 270 162 A 128 128 0 0 1 398 290" fill="none" stroke="#94a3b8" stroke-width="1.8" stroke-dasharray="5 5"/>
        <text x="284" y="180" font-family="Arial, sans-serif" font-size="12" fill="#475569">
          дверь
        </text>
      </g>
    
      <g>
        <line x1="462" y1="768" x2="686" y2="768" stroke="#38bdf8" stroke-width="8" stroke-linecap="round"/>
        <text x="574" y="790" text-anchor="middle" font-family="Arial, sans-serif" font-size="12" font-weight="700" fill="#38bdf8">
          окно
        </text>
      </g>
    

  
    <g>
      <rect x="430" y="402" width="352" height="272" rx="10" fill="#e5e7eb" stroke="#94a3b8" stroke-width="1.8"/>
      <rect x="434" y="406" width="344" height="264" rx="8" fill="url(#rugPattern)" opacity="0.9"/>
      <text x="606" y="543" text-anchor="middle" font-family="Arial, sans-serif" font-size="14" font-weight="700" fill="#475569">
        Ковёр под к…
      </text>
    </g>
  

  
    <g>
      <rect x="462" y="418" width="320" height="224" rx="10" fill="#cbd5e1" stroke="#9299a2" stroke-width="2.2"/>
      <rect x="462" y="418" width="320" height="10" rx="8" fill="#9299a2" opacity="0.9"/>
      <rect x="472" y="434" width="144" height="20" rx="6" fill="#ffffff" opacity="0.85"/>
      <rect x="628" y="434" width="144" height="20" rx="6" fill="#ffffff" opacity="0.85"/>
      <rect x="472" y="462" width="300" height="170" rx="8" fill="rgba(255,255,255,0.16)" stroke="rgba(255,255,255,0.35)" stroke-width="1"/>
      
        <text
          x="622"
          y="536.5"
          text-anchor="middle"
          font-family="Arial, sans-serif"
          font-size="16"
          font-weight="700"
          fill="#0f172a"
        >
          Кровать 140…
        </text>
      
    </g>
  
    <g>
      <rect x="510" y="274" width="224" height="128" rx="16" fill="#cbd5e1" stroke="#9299a2" stroke-width="2.2"/>
      <rect x="518" y="282" width="208" height="112" rx="12" fill="rgba(255,255,255,0.18)"/>
      <rect x="520" y="284" width="62.67" height="108" rx="10" fill="rgba(255,255,255,0.18)"/>
      <rect x="584.67" y="284" width="62.67" height="108" rx="10" fill="rgba(255,255,255,0.18)"/>
      <rect x="661.33" y="284" width="62.67" height="108" rx="10" fill="rgba(255,255,255,0.18)"/>
      
        <text
          x="622"
          y="344.5"
          text-anchor="middle"
          font-family="Arial, sans-serif"
          font-size="16"
          font-weight="700"
          fill="#0f172a"
        >
          Компактный…
        </text>
      
    </g>
  
    <g>
      <rect x="534" y="154" width="256" height="96" rx="8" fill="#cbd5e1" stroke="#9299a2" stroke-width="2.2"/>
      <line x1="662" y1="160" x2="662" y2="244" stroke="#9299a2" stroke-width="1.8"/>
      <circle cx="652" cy="202" r="2.3" fill="#9299a2"/>
      <circle cx="672" cy="202" r="2.3" fill="#9299a2"/>
      
        <text
          x="662"
          y="208.5"
          text-anchor="middle"
          font-family="Arial, sans-serif"
          font-size="16"
          font-weight="700"
          fill="#0f172a"
        >
          Шкаф 160 см
        </text>
      
    </g>
  
    <g>
      <rect x="270" y="514" width="176" height="88" rx="8" fill="#cbd5e1" stroke="#9299a2" stroke-width="2"/>
      <rect x="346" y="610" width="24" height="10" rx="5" fill="#cbd5e1" stroke="#64748b" stroke-width="1"/>
      
        <text
          x="358"
          y="564.5"
          text-anchor="middle"
          font-family="Arial, sans-serif"
          font-size="16"
          font-weight="700"
          fill="#0f172a"
        >
          Стол 110 см
        </text>
      
    </g>
  
    <g>
      <rect x="294" y="322" width="128" height="72" rx="8" fill="#cbd5e1" stroke="#9299a2" stroke-width="2"/>
      <line x1="300" y1="346" x2="416" y2="346" stroke="#9299a2" stroke-width="1.3"/>
      <line x1="300" y1="370" x2="416" y2="370" stroke="#9299a2" stroke-width="1.3"/>
      
        <text
          x="358"
          y="364"
          text-anchor="middle"
          font-family="Arial, sans-serif"
          font-size="15"
          font-weight="700"
          fill="#0f172a"
        >
          Комод 80 см
        </text>
      
    </g>
  
    <g>
      <rect x="342" y="634" width="96" height="96" rx="8" fill="#cbd5e1" stroke="#9299a2" stroke-width="2"/>
      <rect x="379.44" y="738" width="21.12" height="10" rx="5" fill="#cbd5e1" stroke="#64748b" stroke-width="1"/>
      
        <text
          x="390"
          y="679"
          text-anchor="middle"
          font-family="Arial, sans-serif"
          font-size="11"
          font-weight="700"
          fill="#0f172a"
        >
          Стул у
        </text>
      
        <text
          x="390"
          y="693"
          text-anchor="middle"
          font-family="Arial, sans-serif"
          font-size="11"
          font-weight="700"
          fill="#0f172a"
        >
          стола
        </text>
      
    </g>
  
    <g>
      <rect x="390" y="418" width="56" height="64" rx="10" fill="#cbd5e1" stroke="#9299a2" stroke-width="2.2"/>
      <rect x="390" y="418" width="56" height="10" rx="8" fill="#9299a2" opacity="0.9"/>
      <rect x="400" y="434" width="24" height="14" rx="6" fill="#ffffff" opacity="0.85"/>
      <rect x="424" y="434" width="24" height="14" rx="6" fill="#ffffff" opacity="0.85"/>
      <rect x="400" y="462" width="36" height="10" rx="8" fill="rgba(255,255,255,0.16)" stroke="rgba(255,255,255,0.35)" stroke-width="1"/>
      
        <text
          x="418"
          y="453"
          text-anchor="middle"
          font-family="Arial, sans-serif"
          font-size="9"
          font-weight="700"
          fill="#0f172a"
        >
          Прик…
        </text>
      
    </g>
  
    <g>
      <circle cx="778" cy="686" r="21.54" fill="#cbd5e1" stroke="#9299a2" stroke-width="2"/>
      <circle cx="778" cy="686" r="7.18" fill="#ffffff" opacity="0.7"/>
      <line x1="778" y1="664" x2="778" y2="708" stroke="#9299a2" stroke-width="1.4" opacity="0.7"/>
      
        <text
          x="778"
          y="683"
          text-anchor="middle"
          font-family="Arial, sans-serif"
          font-size="9"
          font-weight="700"
          fill="#0f172a"
        >
          Торш…
        </text>
      
        <text
          x="778"
          y="695"
          text-anchor="middle"
          font-family="Arial, sans-serif"
          font-size="9"
          font-weight="700"
          fill="#0f172a"
        >
          у ди…
        </text>
      
    </g>
  

  
    <text x="550" y="114" text-anchor="middle" font-family="Arial, sans-serif" font-size="15" font-weight="700" fill="#334155">
      3.5 м
    </text>

    <text
      x="252"
      y="450"
      transform="rotate(-90 252 450)"
      text-anchor="middle"
      font-family="Arial, sans-serif"
      font-size="15"
      font-weight="700"
      fill="#334155"
    >
      4 м
    </text>
  

  <text x="60" y="820" font-family="Arial, sans-serif" font-size="14" fill="#64748b">
    Вид сверху. Схема построена автоматически по координатам мебели и проёмов. Это концептуальный план, а не строительный чертёж.
  </text>
</svg>