<svg width="1100" height="860" viewBox="0 0 1100 860" xmlns="http://www.w3.org/2000/svg">
  <defs>
    <pattern id="rugPattern" patternUnits="userSpaceOnUse" width="12" height="12" patternTransform="rotate(45)">
      <line x1="0" y1="0" x2="0" y2="12" stroke="#94a3b8" stroke-width="2" opacity="0.55"/>
    </pattern>
    <pattern id="rugDots" patternUnits="userSpaceOnUse" width="10" height="10">
      <circle cx="3" cy="3" r="1.2" fill="#94a3b8" opacity="0.35"/>
    </pattern>
  </defs>

  <rect width="1100" height="860" fill="#f8fafc"/>
  <rect x="24" y="20" width="1052" height="820" rx="28" fill="#ffffff" stroke="#e2e8f0" stroke-width="2"/>

  <text x="60" y="60" font-family="Arial, sans-serif" font-size="16" font-weight="700" fill="#059669">
    ПЛАН РАССТАНОВКИ
  </text>

  <text x="60" y="96" font-family="Arial, sans-serif" font-size="30" font-weight="700" fill="#0f172a">
    Кровать у верхней стены, симметрия и спокойствие
  </text>

  <text x="1040" y="60" text-anchor="end" font-family="Arial, sans-serif" font-size="15" fill="#475569">
    Спальня
  </text>

  <text x="1040" y="84" text-anchor="end" font-family="Arial, sans-serif" font-size="15" fill="#475569">
    Размер: 3.5 × 4 м
  </text>

  <text x="1040" y="108" text-anchor="end" font-family="Arial, sans-serif" font-size="13" fill="#64748b">
    Точность: low
  </text>

  
      <line x1="430" y1="130" x2="430" y2="770" stroke="#e2e8f0" stroke-width="1" stroke-dasharray="5 7"/>
    
      <line x1="590" y1="130" x2="590" y2="770" stroke="#e2e8f0" stroke-width="1" stroke-dasharray="5 7"/>
    
      <line x1="270" y1="290" x2="830" y2="290" stroke="#e2e8f0" stroke-width="1" stroke-dasharray="5 7"/>
    
      <line x1="270" y1="450" x2="830" y2="450" stroke="#e2e8f0" stroke-width="1" stroke-dasharray="5 7"/>
    
      <line x1="270" y1="610" x2="830" y2="610" stroke="#e2e8f0" stroke-width="1" stroke-dasharray="5 7"/>
    

  <rect
    x="270"
    y="130"
    width="560"
    height="640"
    rx="8"
    fill="#fffefc"
    stroke="#1e293b"
    stroke-width="4"
  />

  
      <g>
        <line x1="270" y1="162" x2="398" y2="290" stroke="#475569" stroke-width="2"/>
        <path d="M 270 162 A 128 128 0 0 1 398 290" fill="none" stroke="#94a3b8" stroke-width="1.8" stroke-dasharray="5 5"/>
        <text x="284" y="180" font-family="Arial, sans-serif" font-size="12" fill="#475569">
          дверь
        </text>
      </g>
    
      <g>
        <line x1="462" y1="768" x2="686" y2="768" stroke="#38bdf8" stroke-width="8" stroke-linecap="round"/>
        <text x="574" y="790" text-anchor="middle" font-family="Arial, sans-serif" font-size="12" font-weight="700" fill="#38bdf8">
          окно
        </text>
      </g>
    

  
    <g>
      <rect x="326" y="146" width="368" height="320" rx="10" fill="#e5e7eb" stroke="#94a3b8" stroke-width="1.8"/>
      <rect x="330" y="150" width="360" height="312" rx="8" fill="url(#rugPattern)" opacity="0.9"/>
      <text x="510" y="311" text-anchor="middle" font-family="Arial, sans-serif" font-size="14" font-weight="700" fill="#475569">
        Большой ков…
      </text>
    </g>
  

  
    <g>
      <rect x="438" y="154" width="224" height="320" rx="10" fill="#cbd5e1" stroke="#9299a2" stroke-width="2.2"/>
      <rect x="438" y="154" width="224" height="10" rx="8" fill="#9299a2" opacity="0.9"/>
      <rect x="448" y="170" width="96" height="20" rx="6" fill="#ffffff" opacity="0.85"/>
      <rect x="556" y="170" width="96" height="20" rx="6" fill="#ffffff" opacity="0.85"/>
      <rect x="448" y="198" width="204" height="266" rx="8" fill="rgba(255,255,255,0.16)" stroke="rgba(255,255,255,0.35)" stroke-width="1"/>
      
        <text
          x="550"
          y="320.5"
          text-anchor="middle"
          font-family="Arial, sans-serif"
          font-size="16"
          font-weight="700"
          fill="#0f172a"
        >
          Кровать 140…
        </text>
      
    </g>
  
    <g>
      <rect x="678" y="442" width="96" height="192" rx="8" fill="#cbd5e1" stroke="#9299a2" stroke-width="2.2"/>
      <line x1="726" y1="448" x2="726" y2="628" stroke="#9299a2" stroke-width="1.8"/>
      <circle cx="716" cy="538" r="2.3" fill="#9299a2"/>
      <circle cx="736" cy="538" r="2.3" fill="#9299a2"/>
      
        <text
          x="726"
          y="535"
          text-anchor="middle"
          font-family="Arial, sans-serif"
          font-size="11"
          font-weight="700"
          fill="#0f172a"
        >
          Шкаф 140
        </text>
      
        <text
          x="726"
          y="549"
          text-anchor="middle"
          font-family="Arial, sans-serif"
          font-size="11"
          font-weight="700"
          fill="#0f172a"
        >
          см
        </text>
      
    </g>
  
    <g>
      <rect x="390" y="570" width="128" height="112" rx="8" fill="#cbd5e1" stroke="#9299a2" stroke-width="1.8"/>
      <rect x="396" y="562" width="116" height="10" rx="5" fill="rgba(255,255,255,0.22)" stroke="#9299a2" stroke-width="1.2"/>
      
        <text
          x="454"
          y="619"
          text-anchor="middle"
          font-family="Arial, sans-serif"
          font-size="15"
          font-weight="700"
          fill="#0f172a"
        >
          Кресло у
        </text>
      
        <text
          x="454"
          y="637"
          text-anchor="middle"
          font-family="Arial, sans-serif"
          font-size="15"
          font-weight="700"
          fill="#0f172a"
        >
          ок…
        </text>
      
    </g>
  
    <g>
      <rect x="558" y="514" width="88" height="160" rx="8" fill="#cbd5e1" stroke="#9299a2" stroke-width="2"/>
      <rect x="592.32" y="682" width="19.36" height="10" rx="5" fill="#cbd5e1" stroke="#64748b" stroke-width="1"/>
      
        <text
          x="602"
          y="591"
          text-anchor="middle"
          font-family="Arial, sans-serif"
          font-size="10"
          font-weight="700"
          fill="#0f172a"
        >
          Стол 100
        </text>
      
        <text
          x="602"
          y="604"
          text-anchor="middle"
          font-family="Arial, sans-serif"
          font-size="10"
          font-weight="700"
          fill="#0f172a"
        >
          см
        </text>
      
    </g>
  
    <g>
      <rect x="270" y="442" width="144" height="72" rx="8" fill="#cbd5e1" stroke="#9299a2" stroke-width="2"/>
      <line x1="276" y1="466" x2="408" y2="466" stroke="#9299a2" stroke-width="1.3"/>
      <line x1="276" y1="490" x2="408" y2="490" stroke="#9299a2" stroke-width="1.3"/>
      
        <text
          x="342"
          y="484.5"
          text-anchor="middle"
          font-family="Arial, sans-serif"
          font-size="16"
          font-weight="700"
          fill="#0f172a"
        >
          Комод 90 см
        </text>
      
    </g>
  
    <g>
      <rect x="702" y="658" width="96" height="96" rx="8" fill="#cbd5e1" stroke="#9299a2" stroke-width="2"/>
      <rect x="739.44" y="762" width="21.12" height="10" rx="5" fill="#cbd5e1" stroke="#64748b" stroke-width="1"/>
      
        <text
          x="750"
          y="703"
          text-anchor="middle"
          font-family="Arial, sans-serif"
          font-size="11"
          font-weight="700"
          fill="#0f172a"
        >
          Стул у
        </text>
      
        <text
          x="750"
          y="717"
          text-anchor="middle"
          font-family="Arial, sans-serif"
          font-size="11"
          font-weight="700"
          fill="#0f172a"
        >
          стола
        </text>
      
    </g>
  
    <g>
      <rect x="294" y="322" width="64" height="64" rx="10" fill="#cbd5e1" stroke="#9299a2" stroke-width="2.2"/>
      <rect x="294" y="322" width="64" height="10" rx="8" fill="#9299a2" opacity="0.9"/>
      <rect x="304" y="338" width="24" height="14" rx="6" fill="#ffffff" opacity="0.85"/>
      <rect x="332" y="338" width="24" height="14" rx="6" fill="#ffffff" opacity="0.85"/>
      <rect x="304" y="366" width="44" height="10" rx="8" fill="rgba(255,255,255,0.16)" stroke="rgba(255,255,255,0.35)" stroke-width="1"/>
      
        <text
          x="326"
          y="357"
          text-anchor="middle"
          font-family="Arial, sans-serif"
          font-size="9"
          font-weight="700"
          fill="#0f172a"
        >
          Прик…
        </text>
      
    </g>
  
    <g>
      <rect x="702" y="178" width="64" height="64" rx="10" fill="#cbd5e1" stroke="#9299a2" stroke-width="2.2"/>
      <rect x="702" y="178" width="64" height="10" rx="8" fill="#9299a2" opacity="0.9"/>
      <rect x="712" y="194" width="24" height="14" rx="6" fill="#ffffff" opacity="0.85"/>
      <rect x="740" y="194" width="24" height="14" rx="6" fill="#ffffff" opacity="0.85"/>
      <rect x="712" y="222" width="44" height="10" rx="8" fill="rgba(255,255,255,0.16)" stroke="rgba(255,255,255,0.35)" stroke-width="1"/>
      
        <text
          x="734"
          y="213"
          text-anchor="middle"
          font-family="Arial, sans-serif"
          font-size="9"
          font-weight="700"
          fill="#0f172a"
        >
          Прик…
        </text>
      
    </g>
  
    <g>
      <circle cx="346" cy="614" r="21.54" fill="#cbd5e1" stroke="#9299a2" stroke-width="2"/>
      <circle cx="346" cy="614" r="7.18" fill="#ffffff" opacity="0.7"/>
      <line x1="346" y1="592" x2="346" y2="636" stroke="#9299a2" stroke-width="1.4" opacity="0.7"/>
      
        <text
          x="346"
          y="611"
          text-anchor="middle"
          font-family="Arial, sans-serif"
          font-size="9"
          font-weight="700"
          fill="#0f172a"
        >
          Торш…
        </text>
      
        <text
          x="346"
          y="623"
          text-anchor="middle"
          font-family="Arial, sans-serif"
          font-size="9"
          font-weight="700"
          fill="#0f172a"
        >
          у кр…
        </text>
      
    </g>
  

  
    <text x="550" y="114" text-anchor="middle" font-family="Arial, sans-serif" font-size="15" font-weight="700" fill="#334155">
      3.5 м
    </text>

    <text
      x="252"
      y="450"
      transform="rotate(-90 252 450)"
      text-anchor="middle"
      font-family="Arial, sans-serif"
      font-size="15"
      font-weight="700"
      fill="#334155"
    >
      4 м
    </text>
  

  <text x="60" y="820" font-family="Arial, sans-serif" font-size="14" fill="#64748b">
    Вид сверху. Схема построена автоматически по координатам мебели и проёмов. Это концептуальный план, а не строительный чертёж.
  </text>
</svg>