<svg width="1100" height="860" viewBox="0 0 1100 860" xmlns="http://www.w3.org/2000/svg">
  <defs>
    <pattern id="rugPattern" patternUnits="userSpaceOnUse" width="12" height="12" patternTransform="rotate(45)">
      <line x1="0" y1="0" x2="0" y2="12" stroke="#94a3b8" stroke-width="2" opacity="0.55"/>
    </pattern>
    <pattern id="rugDots" patternUnits="userSpaceOnUse" width="10" height="10">
      <circle cx="3" cy="3" r="1.2" fill="#94a3b8" opacity="0.35"/>
    </pattern>
  </defs>

  <rect width="1100" height="860" fill="#f8fafc"/>
  <rect x="24" y="20" width="1052" height="820" rx="28" fill="#ffffff" stroke="#e2e8f0" stroke-width="2"/>

  <text x="60" y="60" font-family="Arial, sans-serif" font-size="16" font-weight="700" fill="#059669">
    ПЛАН РАССТАНОВКИ
  </text>

  <text x="60" y="96" font-family="Arial, sans-serif" font-size="30" font-weight="700" fill="#0f172a">
    Кровать изголовьем к верхней стене, рабочая зона у окна
  </text>

  <text x="1040" y="60" text-anchor="end" font-family="Arial, sans-serif" font-size="15" fill="#475569">
    Спальня
  </text>

  <text x="1040" y="84" text-anchor="end" font-family="Arial, sans-serif" font-size="15" fill="#475569">
    Размер: 3.5 × 4 м
  </text>

  <text x="1040" y="108" text-anchor="end" font-family="Arial, sans-serif" font-size="13" fill="#64748b">
    Точность: low
  </text>

  
      <line x1="430" y1="130" x2="430" y2="770" stroke="#e2e8f0" stroke-width="1" stroke-dasharray="5 7"/>
    
      <line x1="590" y1="130" x2="590" y2="770" stroke="#e2e8f0" stroke-width="1" stroke-dasharray="5 7"/>
    
      <line x1="270" y1="290" x2="830" y2="290" stroke="#e2e8f0" stroke-width="1" stroke-dasharray="5 7"/>
    
      <line x1="270" y1="450" x2="830" y2="450" stroke="#e2e8f0" stroke-width="1" stroke-dasharray="5 7"/>
    
      <line x1="270" y1="610" x2="830" y2="610" stroke="#e2e8f0" stroke-width="1" stroke-dasharray="5 7"/>
    

  <rect
    x="270"
    y="130"
    width="560"
    height="640"
    rx="8"
    fill="#fffefc"
    stroke="#1e293b"
    stroke-width="4"
  />

  
      <g>
        <line x1="270" y1="162" x2="398" y2="290" stroke="#475569" stroke-width="2"/>
        <path d="M 270 162 A 128 128 0 0 1 398 290" fill="none" stroke="#94a3b8" stroke-width="1.8" stroke-dasharray="5 5"/>
        <text x="284" y="180" font-family="Arial, sans-serif" font-size="12" fill="#475569">
          дверь
        </text>
      </g>
    
      <g>
        <line x1="462" y1="768" x2="686" y2="768" stroke="#38bdf8" stroke-width="8" stroke-linecap="round"/>
        <text x="574" y="790" text-anchor="middle" font-family="Arial, sans-serif" font-size="12" font-weight="700" fill="#38bdf8">
          окно
        </text>
      </g>
    

  
    <g>
      <rect x="398" y="162" width="288" height="368" rx="10" fill="#e5e7eb" stroke="#94a3b8" stroke-width="1.8"/>
      <rect x="402" y="166" width="280" height="360" rx="8" fill="url(#rugPattern)" opacity="0.9"/>
      <text x="542" y="351" text-anchor="middle" font-family="Arial, sans-serif" font-size="14" font-weight="700" fill="#475569">
        Ковёр под к…
      </text>
    </g>
  

  
    <g>
      <rect x="438" y="178" width="224" height="320" rx="10" fill="#F7F4EE" stroke="#b2b0ab" stroke-width="2.2"/>
      <rect x="438" y="178" width="224" height="10" rx="8" fill="#b2b0ab" opacity="0.9"/>
      <rect x="448" y="194" width="96" height="20" rx="6" fill="#ffffff" opacity="0.85"/>
      <rect x="556" y="194" width="96" height="20" rx="6" fill="#ffffff" opacity="0.85"/>
      <rect x="448" y="222" width="204" height="266" rx="8" fill="rgba(255,255,255,0.16)" stroke="rgba(255,255,255,0.35)" stroke-width="1"/>
      
        <text
          x="550"
          y="344.5"
          text-anchor="middle"
          font-family="Arial, sans-serif"
          font-size="16"
          font-weight="700"
          fill="#0f172a"
        >
          Кровать 140…
        </text>
      
    </g>
  
    <g>
      <rect x="534" y="514" width="288" height="96" rx="8" fill="#F0ECE4" stroke="#adaaa4" stroke-width="2.2"/>
      <line x1="678" y1="520" x2="678" y2="604" stroke="#adaaa4" stroke-width="1.8"/>
      <circle cx="668" cy="562" r="2.3" fill="#adaaa4"/>
      <circle cx="688" cy="562" r="2.3" fill="#adaaa4"/>
      
        <text
          x="678"
          y="568.5"
          text-anchor="middle"
          font-family="Arial, sans-serif"
          font-size="16"
          font-weight="700"
          fill="#0f172a"
        >
          Шкаф 180x60
        </text>
      
    </g>
  
    <g>
      <rect x="318" y="538" width="160" height="80" rx="8" fill="#F7F4EE" stroke="#b2b0ab" stroke-width="2"/>
      <rect x="386" y="626" width="24" height="10" rx="5" fill="#cbd5e1" stroke="#64748b" stroke-width="1"/>
      
        <text
          x="398"
          y="584.5"
          text-anchor="middle"
          font-family="Arial, sans-serif"
          font-size="16"
          font-weight="700"
          fill="#0f172a"
        >
          Стол у окна
        </text>
      
    </g>
  
    <g>
      <rect x="270" y="634" width="176" height="72" rx="8" fill="#EDE6DA" stroke="#aba69d" stroke-width="2"/>
      <line x1="276" y1="658" x2="440" y2="658" stroke="#aba69d" stroke-width="1.3"/>
      <line x1="276" y1="682" x2="440" y2="682" stroke="#aba69d" stroke-width="1.3"/>
      
        <text
          x="358"
          y="676.5"
          text-anchor="middle"
          font-family="Arial, sans-serif"
          font-size="16"
          font-weight="700"
          fill="#0f172a"
        >
          Комод у лев…
        </text>
      
    </g>
  
    <g>
      <rect x="294" y="394" width="128" height="56" rx="8" fill="#222222" stroke="#181818" stroke-width="2"/>
      <line x1="300" y1="412.67" x2="416" y2="412.67" stroke="#181818" stroke-width="1.3"/>
      <line x1="300" y1="431.33" x2="416" y2="431.33" stroke="#181818" stroke-width="1.3"/>
      
        <text
          x="358"
          y="419"
          text-anchor="middle"
          font-family="Arial, sans-serif"
          font-size="15"
          font-weight="700"
          fill="#0f172a"
        >
          ТВ на
        </text>
      
        <text
          x="358"
          y="437"
          text-anchor="middle"
          font-family="Arial, sans-serif"
          font-size="15"
          font-weight="700"
          fill="#0f172a"
        >
          комоде
        </text>
      
    </g>
  
    <g>
      <rect x="702" y="634" width="72" height="72" rx="8" fill="#D8D2C4" stroke="#9c978d" stroke-width="2"/>
      <rect x="730.08" y="714" width="15.84" height="10" rx="5" fill="#cbd5e1" stroke="#64748b" stroke-width="1"/>
      
        <text
          x="738"
          y="667"
          text-anchor="middle"
          font-family="Arial, sans-serif"
          font-size="9"
          font-weight="700"
          fill="#0f172a"
        >
          Стул у
        </text>
      
        <text
          x="738"
          y="679"
          text-anchor="middle"
          font-family="Arial, sans-serif"
          font-size="9"
          font-weight="700"
          fill="#0f172a"
        >
          стола
        </text>
      
    </g>
  
    <g>
      <rect x="678" y="178" width="64" height="64" rx="10" fill="#E6E0D5" stroke="#a6a199" stroke-width="2.2"/>
      <rect x="678" y="178" width="64" height="10" rx="8" fill="#a6a199" opacity="0.9"/>
      <rect x="688" y="194" width="24" height="14" rx="6" fill="#ffffff" opacity="0.85"/>
      <rect x="716" y="194" width="24" height="14" rx="6" fill="#ffffff" opacity="0.85"/>
      <rect x="688" y="222" width="44" height="10" rx="8" fill="rgba(255,255,255,0.16)" stroke="rgba(255,255,255,0.35)" stroke-width="1"/>
      
        <text
          x="710"
          y="213"
          text-anchor="middle"
          font-family="Arial, sans-serif"
          font-size="9"
          font-weight="700"
          fill="#0f172a"
        >
          Прик…
        </text>
      
    </g>
  
    <g>
      <rect x="678" y="274" width="64" height="64" rx="10" fill="#E6E0D5" stroke="#a6a199" stroke-width="2.2"/>
      <rect x="678" y="274" width="64" height="10" rx="8" fill="#a6a199" opacity="0.9"/>
      <rect x="688" y="290" width="24" height="14" rx="6" fill="#ffffff" opacity="0.85"/>
      <rect x="716" y="290" width="24" height="14" rx="6" fill="#ffffff" opacity="0.85"/>
      <rect x="688" y="318" width="44" height="10" rx="8" fill="rgba(255,255,255,0.16)" stroke="rgba(255,255,255,0.35)" stroke-width="1"/>
      
        <text
          x="710"
          y="309"
          text-anchor="middle"
          font-family="Arial, sans-serif"
          font-size="9"
          font-weight="700"
          fill="#0f172a"
        >
          Прик…
        </text>
      
    </g>
  
    <g>
      <circle cx="346" cy="494" r="21.54" fill="#F5F2E9" stroke="#b0aea8" stroke-width="2"/>
      <circle cx="346" cy="494" r="7.18" fill="#ffffff" opacity="0.7"/>
      <line x1="346" y1="472" x2="346" y2="516" stroke="#b0aea8" stroke-width="1.4" opacity="0.7"/>
      
        <text
          x="346"
          y="491"
          text-anchor="middle"
          font-family="Arial, sans-serif"
          font-size="9"
          font-weight="700"
          fill="#0f172a"
        >
          Торш…
        </text>
      
        <text
          x="346"
          y="503"
          text-anchor="middle"
          font-family="Arial, sans-serif"
          font-size="9"
          font-weight="700"
          fill="#0f172a"
        >
          у ко…
        </text>
      
    </g>
  

  
    <text x="550" y="114" text-anchor="middle" font-family="Arial, sans-serif" font-size="15" font-weight="700" fill="#334155">
      3.5 м
    </text>

    <text
      x="252"
      y="450"
      transform="rotate(-90 252 450)"
      text-anchor="middle"
      font-family="Arial, sans-serif"
      font-size="15"
      font-weight="700"
      fill="#334155"
    >
      4 м
    </text>
  

  <text x="60" y="820" font-family="Arial, sans-serif" font-size="14" fill="#64748b">
    Вид сверху. Схема построена автоматически по координатам мебели и проёмов. Это концептуальный план, а не строительный чертёж.
  </text>
</svg>