<svg width="1100" height="860" viewBox="0 0 1100 860" xmlns="http://www.w3.org/2000/svg">
  <defs>
    <pattern id="rugPattern" patternUnits="userSpaceOnUse" width="12" height="12" patternTransform="rotate(45)">
      <line x1="0" y1="0" x2="0" y2="12" stroke="#94a3b8" stroke-width="2" opacity="0.55"/>
    </pattern>
    <pattern id="rugDots" patternUnits="userSpaceOnUse" width="10" height="10">
      <circle cx="3" cy="3" r="1.2" fill="#94a3b8" opacity="0.35"/>
    </pattern>
  </defs>

  <rect width="1100" height="860" fill="#f8fafc"/>
  <rect x="24" y="20" width="1052" height="820" rx="28" fill="#ffffff" stroke="#e2e8f0" stroke-width="2"/>

  <text x="60" y="60" font-family="Arial, sans-serif" font-size="16" font-weight="700" fill="#059669">
    ПЛАН РАССТАНОВКИ
  </text>

  <text x="60" y="96" font-family="Arial, sans-serif" font-size="30" font-weight="700" fill="#0f172a">
    Кровать по центру стены напротив окна
  </text>

  <text x="1040" y="60" text-anchor="end" font-family="Arial, sans-serif" font-size="15" fill="#475569">
    Спальня
  </text>

  <text x="1040" y="84" text-anchor="end" font-family="Arial, sans-serif" font-size="15" fill="#475569">
    Размер: 3.5 × 4 м
  </text>

  <text x="1040" y="108" text-anchor="end" font-family="Arial, sans-serif" font-size="13" fill="#64748b">
    Точность: low
  </text>

  
      <line x1="430" y1="130" x2="430" y2="770" stroke="#e2e8f0" stroke-width="1" stroke-dasharray="5 7"/>
    
      <line x1="590" y1="130" x2="590" y2="770" stroke="#e2e8f0" stroke-width="1" stroke-dasharray="5 7"/>
    
      <line x1="270" y1="290" x2="830" y2="290" stroke="#e2e8f0" stroke-width="1" stroke-dasharray="5 7"/>
    
      <line x1="270" y1="450" x2="830" y2="450" stroke="#e2e8f0" stroke-width="1" stroke-dasharray="5 7"/>
    
      <line x1="270" y1="610" x2="830" y2="610" stroke="#e2e8f0" stroke-width="1" stroke-dasharray="5 7"/>
    

  <rect
    x="270"
    y="130"
    width="560"
    height="640"
    rx="8"
    fill="#fffefc"
    stroke="#1e293b"
    stroke-width="4"
  />

  
    <g>
      <line x1="828" y1="226" x2="828" y2="418" stroke="#38bdf8" stroke-width="8" stroke-linecap="round"/>
      <text x="844" y="322" font-family="Arial, sans-serif" font-size="12" font-weight="700" fill="#38bdf8" text-anchor="start">
        Окно
      </text>
    </g>
  
      <g>
        <line x1="270" y1="226" x2="414" y2="370" stroke="#475569" stroke-width="2"/>
        <path d="M 270 226 A 144 144 0 0 1 414 370" fill="none" stroke="#94a3b8" stroke-width="1.8" stroke-dasharray="5 5"/>
        <text x="284" y="244" font-family="Arial, sans-serif" font-size="12" fill="#475569">
          Дверь
        </text>
      </g>
    

  
    <g>
      <rect x="374" y="602.8" width="400" height="184.8" rx="10" fill="#e5e7eb" stroke="#94a3b8" stroke-width="1.8"/>
      <rect x="378" y="606.8" width="392" height="176.8" rx="8" fill="url(#rugPattern)" opacity="0.9"/>
      <text x="574" y="700.2" text-anchor="middle" font-family="Arial, sans-serif" font-size="14" font-weight="700" fill="#475569">
        Ковёр
      </text>
    </g>
  

  
    <g>
      <rect x="414" y="418" width="320" height="336" rx="10" fill="#cbd5e1" stroke="#9299a2" stroke-width="2.2"/>
      <rect x="414" y="418" width="320" height="10" rx="8" fill="#9299a2" opacity="0.9"/>
      <rect x="424" y="434" width="144" height="20" rx="6" fill="#ffffff" opacity="0.85"/>
      <rect x="580" y="434" width="144" height="20" rx="6" fill="#ffffff" opacity="0.85"/>
      <rect x="424" y="462" width="300" height="282" rx="8" fill="rgba(255,255,255,0.16)" stroke="rgba(255,255,255,0.35)" stroke-width="1"/>
      
        <text
          x="574"
          y="592.5"
          text-anchor="middle"
          font-family="Arial, sans-serif"
          font-size="16"
          font-weight="700"
          fill="#0f172a"
        >
          Двуспальная…
        </text>
      
    </g>
  
    <g>
      <rect x="750" y="538" width="80" height="176" rx="10" fill="#cbd5e1" stroke="#9299a2" stroke-width="2.2"/>
      <rect x="750" y="538" width="80" height="10" rx="8" fill="#9299a2" opacity="0.9"/>
      <rect x="760" y="554" width="24" height="20" rx="6" fill="#ffffff" opacity="0.85"/>
      <rect x="796" y="554" width="24" height="20" rx="6" fill="#ffffff" opacity="0.85"/>
      <rect x="760" y="582" width="60" height="122" rx="8" fill="rgba(255,255,255,0.16)" stroke="rgba(255,255,255,0.35)" stroke-width="1"/>
      
        <text
          x="790"
          y="623"
          text-anchor="middle"
          font-family="Arial, sans-serif"
          font-size="9"
          font-weight="700"
          fill="#0f172a"
        >
          Стол
        </text>
      
        <text
          x="790"
          y="635"
          text-anchor="middle"
          font-family="Arial, sans-serif"
          font-size="9"
          font-weight="700"
          fill="#0f172a"
        >
          туалет…
        </text>
      
    </g>
  
    <g>
      <rect x="438" y="226" width="144" height="96" rx="10" fill="#cbd5e1" stroke="#9299a2" stroke-width="2.2"/>
      <rect x="438" y="226" width="144" height="10" rx="8" fill="#9299a2" opacity="0.9"/>
      <rect x="448" y="242" width="56" height="15.36" rx="6" fill="#ffffff" opacity="0.85"/>
      <rect x="516" y="242" width="56" height="15.36" rx="6" fill="#ffffff" opacity="0.85"/>
      <rect x="448" y="270" width="124" height="42" rx="8" fill="rgba(255,255,255,0.16)" stroke="rgba(255,255,255,0.35)" stroke-width="1"/>
      
        <text
          x="510"
          y="280.5"
          text-anchor="middle"
          font-family="Arial, sans-serif"
          font-size="16"
          font-weight="700"
          fill="#0f172a"
        >
          Шкаф
        </text>
      
    </g>
  
    <g>
      <rect x="438" y="130" width="96" height="72" rx="10" fill="#cbd5e1" stroke="#9299a2" stroke-width="2.2"/>
      <rect x="438" y="130" width="96" height="10" rx="8" fill="#9299a2" opacity="0.9"/>
      <rect x="448" y="146" width="32" height="14" rx="6" fill="#ffffff" opacity="0.85"/>
      <rect x="492" y="146" width="32" height="14" rx="6" fill="#ffffff" opacity="0.85"/>
      <rect x="448" y="174" width="76" height="18" rx="8" fill="rgba(255,255,255,0.16)" stroke="rgba(255,255,255,0.35)" stroke-width="1"/>
      
        <text
          x="486"
          y="163"
          text-anchor="middle"
          font-family="Arial, sans-serif"
          font-size="11"
          font-weight="700"
          fill="#0f172a"
        >
          Тумба
        </text>
      
        <text
          x="486"
          y="177"
          text-anchor="middle"
          font-family="Arial, sans-serif"
          font-size="11"
          font-weight="700"
          fill="#0f172a"
        >
          левая
        </text>
      
    </g>
  
    <g>
      <rect x="630" y="274" width="96" height="72" rx="10" fill="#cbd5e1" stroke="#9299a2" stroke-width="2.2"/>
      <rect x="630" y="274" width="96" height="10" rx="8" fill="#9299a2" opacity="0.9"/>
      <rect x="640" y="290" width="32" height="14" rx="6" fill="#ffffff" opacity="0.85"/>
      <rect x="684" y="290" width="32" height="14" rx="6" fill="#ffffff" opacity="0.85"/>
      <rect x="640" y="318" width="76" height="18" rx="8" fill="rgba(255,255,255,0.16)" stroke="rgba(255,255,255,0.35)" stroke-width="1"/>
      
        <text
          x="678"
          y="307"
          text-anchor="middle"
          font-family="Arial, sans-serif"
          font-size="11"
          font-weight="700"
          fill="#0f172a"
        >
          Тумба
        </text>
      
        <text
          x="678"
          y="321"
          text-anchor="middle"
          font-family="Arial, sans-serif"
          font-size="11"
          font-weight="700"
          fill="#0f172a"
        >
          правая
        </text>
      
    </g>
  
    <g>
      <rect x="750" y="442" width="80" height="80" rx="10" fill="#cbd5e1" stroke="#9299a2" stroke-width="2.2"/>
      <rect x="750" y="442" width="80" height="10" rx="8" fill="#9299a2" opacity="0.9"/>
      <rect x="760" y="458" width="24" height="14" rx="6" fill="#ffffff" opacity="0.85"/>
      <rect x="796" y="458" width="24" height="14" rx="6" fill="#ffffff" opacity="0.85"/>
      <rect x="760" y="486" width="60" height="26" rx="8" fill="rgba(255,255,255,0.16)" stroke="rgba(255,255,255,0.35)" stroke-width="1"/>
      
        <text
          x="790"
          y="479"
          text-anchor="middle"
          font-family="Arial, sans-serif"
          font-size="9"
          font-weight="700"
          fill="#0f172a"
        >
          Стул у
        </text>
      
        <text
          x="790"
          y="491"
          text-anchor="middle"
          font-family="Arial, sans-serif"
          font-size="9"
          font-weight="700"
          fill="#0f172a"
        >
          стола
        </text>
      
    </g>
  

  
    <text x="550" y="114" text-anchor="middle" font-family="Arial, sans-serif" font-size="15" font-weight="700" fill="#334155">
      3.5 м
    </text>

    <text
      x="252"
      y="450"
      transform="rotate(-90 252 450)"
      text-anchor="middle"
      font-family="Arial, sans-serif"
      font-size="15"
      font-weight="700"
      fill="#334155"
    >
      4 м
    </text>
  

  <text x="60" y="820" font-family="Arial, sans-serif" font-size="14" fill="#64748b">
    Вид сверху. Схема построена автоматически по координатам мебели и проёмов. Это концептуальный план, а не строительный чертёж.
  </text>
</svg>